<mxfile host="app.diagrams.net" modified="2024-01-24T19:34:06.875Z" agent="Mozilla/5.0 (Windows NT 10.0; Win64; x64) AppleWebKit/537.36 (KHTML, like Gecko) Chrome/120.0.0.0 Safari/537.36 Edg/120.0.0.0" etag="evnW--l-f8gB6yJl2zh1" version="23.0.1" type="github">
  <diagram name="Page-1" id="7X7KlXT3ChVLrNi_xcjh">
    <mxGraphModel dx="1435" dy="1898" grid="1" gridSize="10" guides="1" tooltips="1" connect="1" arrows="1" fold="1" page="1" pageScale="1" pageWidth="850" pageHeight="1100" math="0" shadow="0">
      <root>
        <mxCell id="0" />
        <mxCell id="1" parent="0" />
        <mxCell id="pg0yVm2rFB4dUitIP7Ws-1" value="Game" style="rounded=0;whiteSpace=wrap;html=1;" vertex="1" parent="1">
          <mxGeometry x="10" y="40" width="90" height="40" as="geometry" />
        </mxCell>
        <mxCell id="pg0yVm2rFB4dUitIP7Ws-2" value="DreamTileMarket" style="rounded=0;whiteSpace=wrap;html=1;" vertex="1" parent="1">
          <mxGeometry x="230" y="40" width="90" height="40" as="geometry" />
        </mxCell>
        <mxCell id="pg0yVm2rFB4dUitIP7Ws-3" value="Deck" style="rounded=0;whiteSpace=wrap;html=1;" vertex="1" parent="1">
          <mxGeometry x="520" y="40" width="90" height="40" as="geometry" />
        </mxCell>
        <mxCell id="pg0yVm2rFB4dUitIP7Ws-4" value="Dreamtile" style="rounded=0;whiteSpace=wrap;html=1;" vertex="1" parent="1">
          <mxGeometry x="660" y="40" width="90" height="40" as="geometry" />
        </mxCell>
        <mxCell id="pg0yVm2rFB4dUitIP7Ws-5" value="Display" style="rounded=0;whiteSpace=wrap;html=1;" vertex="1" parent="1">
          <mxGeometry x="790" y="40" width="90" height="40" as="geometry" />
        </mxCell>
        <mxCell id="pg0yVm2rFB4dUitIP7Ws-6" value="UserInput" style="rounded=0;whiteSpace=wrap;html=1;" vertex="1" parent="1">
          <mxGeometry x="910" y="40" width="90" height="40" as="geometry" />
        </mxCell>
        <mxCell id="pg0yVm2rFB4dUitIP7Ws-7" value="Board" style="rounded=0;whiteSpace=wrap;html=1;" vertex="1" parent="1">
          <mxGeometry x="1040" y="40" width="90" height="40" as="geometry" />
        </mxCell>
        <mxCell id="pg0yVm2rFB4dUitIP7Ws-10" value="" style="endArrow=none;dashed=1;html=1;rounded=0;" edge="1" parent="1">
          <mxGeometry width="50" height="50" relative="1" as="geometry">
            <mxPoint x="60" y="700" as="sourcePoint" />
            <mxPoint x="60" y="80" as="targetPoint" />
          </mxGeometry>
        </mxCell>
        <mxCell id="pg0yVm2rFB4dUitIP7Ws-12" value="" style="endArrow=none;dashed=1;html=1;rounded=0;" edge="1" parent="1" source="pg0yVm2rFB4dUitIP7Ws-24">
          <mxGeometry width="50" height="50" relative="1" as="geometry">
            <mxPoint x="280" y="700" as="sourcePoint" />
            <mxPoint x="280" y="80" as="targetPoint" />
          </mxGeometry>
        </mxCell>
        <mxCell id="pg0yVm2rFB4dUitIP7Ws-13" value="" style="endArrow=none;dashed=1;html=1;rounded=0;" edge="1" parent="1">
          <mxGeometry width="50" height="50" relative="1" as="geometry">
            <mxPoint x="564.6" y="700" as="sourcePoint" />
            <mxPoint x="564.6" y="80" as="targetPoint" />
          </mxGeometry>
        </mxCell>
        <mxCell id="pg0yVm2rFB4dUitIP7Ws-14" value="" style="endArrow=none;dashed=1;html=1;rounded=0;" edge="1" parent="1">
          <mxGeometry width="50" height="50" relative="1" as="geometry">
            <mxPoint x="704.6" y="700" as="sourcePoint" />
            <mxPoint x="704.6" y="80" as="targetPoint" />
          </mxGeometry>
        </mxCell>
        <mxCell id="pg0yVm2rFB4dUitIP7Ws-15" value="" style="endArrow=none;dashed=1;html=1;rounded=0;" edge="1" parent="1">
          <mxGeometry width="50" height="50" relative="1" as="geometry">
            <mxPoint x="834.6" y="700" as="sourcePoint" />
            <mxPoint x="834.6" y="80" as="targetPoint" />
          </mxGeometry>
        </mxCell>
        <mxCell id="pg0yVm2rFB4dUitIP7Ws-16" value="" style="endArrow=none;dashed=1;html=1;rounded=0;" edge="1" parent="1" source="pg0yVm2rFB4dUitIP7Ws-75">
          <mxGeometry width="50" height="50" relative="1" as="geometry">
            <mxPoint x="954.6" y="690" as="sourcePoint" />
            <mxPoint x="954.6" y="70" as="targetPoint" />
          </mxGeometry>
        </mxCell>
        <mxCell id="pg0yVm2rFB4dUitIP7Ws-17" value="" style="endArrow=none;dashed=1;html=1;rounded=0;" edge="1" parent="1" source="pg0yVm2rFB4dUitIP7Ws-70">
          <mxGeometry width="50" height="50" relative="1" as="geometry">
            <mxPoint x="1084.6" y="700" as="sourcePoint" />
            <mxPoint x="1084.6" y="80" as="targetPoint" />
          </mxGeometry>
        </mxCell>
        <mxCell id="pg0yVm2rFB4dUitIP7Ws-18" value="" style="endArrow=none;html=1;rounded=0;" edge="1" parent="1">
          <mxGeometry width="50" height="50" relative="1" as="geometry">
            <mxPoint x="30" y="710" as="sourcePoint" />
            <mxPoint x="30" y="80" as="targetPoint" />
          </mxGeometry>
        </mxCell>
        <mxCell id="pg0yVm2rFB4dUitIP7Ws-19" value="" style="endArrow=none;html=1;rounded=0;" edge="1" parent="1">
          <mxGeometry width="50" height="50" relative="1" as="geometry">
            <mxPoint x="100" y="710" as="sourcePoint" />
            <mxPoint x="100" y="80" as="targetPoint" />
          </mxGeometry>
        </mxCell>
        <mxCell id="pg0yVm2rFB4dUitIP7Ws-20" value="" style="endArrow=classic;html=1;rounded=0;" edge="1" parent="1">
          <mxGeometry width="50" height="50" relative="1" as="geometry">
            <mxPoint x="60" y="120" as="sourcePoint" />
            <mxPoint x="280" y="120" as="targetPoint" />
          </mxGeometry>
        </mxCell>
        <mxCell id="pg0yVm2rFB4dUitIP7Ws-22" value="get top 4 dream tiles" style="edgeLabel;html=1;align=center;verticalAlign=middle;resizable=0;points=[];" vertex="1" connectable="0" parent="pg0yVm2rFB4dUitIP7Ws-20">
          <mxGeometry x="-0.0222" y="1" relative="1" as="geometry">
            <mxPoint as="offset" />
          </mxGeometry>
        </mxCell>
        <mxCell id="pg0yVm2rFB4dUitIP7Ws-21" value="" style="endArrow=classic;html=1;rounded=0;" edge="1" parent="1">
          <mxGeometry width="50" height="50" relative="1" as="geometry">
            <mxPoint x="280" y="200" as="sourcePoint" />
            <mxPoint x="60" y="200" as="targetPoint" />
          </mxGeometry>
        </mxCell>
        <mxCell id="pg0yVm2rFB4dUitIP7Ws-23" value="process finished" style="edgeLabel;html=1;align=center;verticalAlign=middle;resizable=0;points=[];" vertex="1" connectable="0" parent="pg0yVm2rFB4dUitIP7Ws-21">
          <mxGeometry x="-0.0069" y="-1" relative="1" as="geometry">
            <mxPoint as="offset" />
          </mxGeometry>
        </mxCell>
        <mxCell id="pg0yVm2rFB4dUitIP7Ws-25" value="" style="endArrow=none;dashed=1;html=1;rounded=0;" edge="1" parent="1" source="pg0yVm2rFB4dUitIP7Ws-46" target="pg0yVm2rFB4dUitIP7Ws-24">
          <mxGeometry width="50" height="50" relative="1" as="geometry">
            <mxPoint x="280" y="700" as="sourcePoint" />
            <mxPoint x="280" y="80" as="targetPoint" />
          </mxGeometry>
        </mxCell>
        <mxCell id="pg0yVm2rFB4dUitIP7Ws-24" value="" style="rounded=0;whiteSpace=wrap;html=1;" vertex="1" parent="1">
          <mxGeometry x="270" y="130" width="10" height="70" as="geometry" />
        </mxCell>
        <mxCell id="pg0yVm2rFB4dUitIP7Ws-26" value="" style="endArrow=classic;html=1;rounded=0;" edge="1" parent="1">
          <mxGeometry width="50" height="50" relative="1" as="geometry">
            <mxPoint x="280" y="120" as="sourcePoint" />
            <mxPoint x="570" y="120" as="targetPoint" />
          </mxGeometry>
        </mxCell>
        <mxCell id="pg0yVm2rFB4dUitIP7Ws-31" value="Draw 4" style="edgeLabel;html=1;align=center;verticalAlign=middle;resizable=0;points=[];" vertex="1" connectable="0" parent="pg0yVm2rFB4dUitIP7Ws-26">
          <mxGeometry x="-0.3134" y="2" relative="1" as="geometry">
            <mxPoint as="offset" />
          </mxGeometry>
        </mxCell>
        <mxCell id="pg0yVm2rFB4dUitIP7Ws-27" value="" style="rounded=0;whiteSpace=wrap;html=1;" vertex="1" parent="1">
          <mxGeometry x="550" y="130" width="10" height="70" as="geometry" />
        </mxCell>
        <mxCell id="pg0yVm2rFB4dUitIP7Ws-30" value="" style="html=1;labelBackgroundColor=#ffffff;startArrow=none;startFill=0;startSize=6;endArrow=classic;endFill=1;endSize=6;jettySize=auto;orthogonalLoop=1;strokeWidth=1;dashed=1;fontSize=14;rounded=0;entryX=0.5;entryY=1;entryDx=0;entryDy=0;" edge="1" parent="1" target="pg0yVm2rFB4dUitIP7Ws-24">
          <mxGeometry width="60" height="60" relative="1" as="geometry">
            <mxPoint x="560" y="200" as="sourcePoint" />
            <mxPoint x="620" y="140" as="targetPoint" />
          </mxGeometry>
        </mxCell>
        <mxCell id="pg0yVm2rFB4dUitIP7Ws-32" value="return 4 dreamtiles" style="edgeLabel;html=1;align=center;verticalAlign=middle;resizable=0;points=[];" vertex="1" connectable="0" parent="pg0yVm2rFB4dUitIP7Ws-30">
          <mxGeometry x="0.0024" y="2" relative="1" as="geometry">
            <mxPoint as="offset" />
          </mxGeometry>
        </mxCell>
        <mxCell id="pg0yVm2rFB4dUitIP7Ws-33" value="" style="endArrow=classic;html=1;rounded=0;" edge="1" parent="1">
          <mxGeometry width="50" height="50" relative="1" as="geometry">
            <mxPoint x="710" y="120" as="sourcePoint" />
            <mxPoint x="570" y="120" as="targetPoint" />
          </mxGeometry>
        </mxCell>
        <mxCell id="pg0yVm2rFB4dUitIP7Ws-34" value="get dream tile" style="edgeLabel;html=1;align=center;verticalAlign=middle;resizable=0;points=[];" vertex="1" connectable="0" parent="pg0yVm2rFB4dUitIP7Ws-33">
          <mxGeometry x="0.1891" relative="1" as="geometry">
            <mxPoint as="offset" />
          </mxGeometry>
        </mxCell>
        <mxCell id="pg0yVm2rFB4dUitIP7Ws-35" value="" style="endArrow=classic;html=1;rounded=0;" edge="1" parent="1">
          <mxGeometry width="50" height="50" relative="1" as="geometry">
            <mxPoint x="270" y="240" as="sourcePoint" />
            <mxPoint x="840" y="240" as="targetPoint" />
          </mxGeometry>
        </mxCell>
        <mxCell id="pg0yVm2rFB4dUitIP7Ws-36" value="(for each player)" style="text;html=1;strokeColor=none;fillColor=none;align=center;verticalAlign=middle;whiteSpace=wrap;rounded=0;" vertex="1" parent="1">
          <mxGeometry x="130" y="210" width="60" height="30" as="geometry" />
        </mxCell>
        <mxCell id="pg0yVm2rFB4dUitIP7Ws-37" value="" style="endArrow=classic;html=1;rounded=0;" edge="1" parent="1">
          <mxGeometry width="50" height="50" relative="1" as="geometry">
            <mxPoint x="60" y="320" as="sourcePoint" />
            <mxPoint x="960" y="320" as="targetPoint" />
          </mxGeometry>
        </mxCell>
        <mxCell id="pg0yVm2rFB4dUitIP7Ws-39" value="choose dreamtile or add Z token" style="edgeLabel;html=1;align=center;verticalAlign=middle;resizable=0;points=[];" vertex="1" connectable="0" parent="pg0yVm2rFB4dUitIP7Ws-37">
          <mxGeometry x="-0.009" y="2" relative="1" as="geometry">
            <mxPoint as="offset" />
          </mxGeometry>
        </mxCell>
        <mxCell id="pg0yVm2rFB4dUitIP7Ws-38" value="" style="rounded=0;whiteSpace=wrap;html=1;" vertex="1" parent="1">
          <mxGeometry x="950" y="330" width="10" height="50" as="geometry" />
        </mxCell>
        <mxCell id="pg0yVm2rFB4dUitIP7Ws-41" value="" style="html=1;labelBackgroundColor=#ffffff;startArrow=none;startFill=0;startSize=6;endArrow=classic;endFill=1;endSize=6;jettySize=auto;orthogonalLoop=1;strokeWidth=1;dashed=1;fontSize=14;rounded=0;" edge="1" parent="1">
          <mxGeometry width="60" height="60" relative="1" as="geometry">
            <mxPoint x="945" y="380" as="sourcePoint" />
            <mxPoint x="60" y="380" as="targetPoint" />
          </mxGeometry>
        </mxCell>
        <mxCell id="pg0yVm2rFB4dUitIP7Ws-45" value="" style="endArrow=classic;html=1;rounded=0;" edge="1" parent="1">
          <mxGeometry width="50" height="50" relative="1" as="geometry">
            <mxPoint x="60" y="440" as="sourcePoint" />
            <mxPoint x="280" y="440" as="targetPoint" />
          </mxGeometry>
        </mxCell>
        <mxCell id="pg0yVm2rFB4dUitIP7Ws-60" value="get choice" style="edgeLabel;html=1;align=center;verticalAlign=middle;resizable=0;points=[];" vertex="1" connectable="0" parent="pg0yVm2rFB4dUitIP7Ws-45">
          <mxGeometry x="-0.1385" relative="1" as="geometry">
            <mxPoint as="offset" />
          </mxGeometry>
        </mxCell>
        <mxCell id="pg0yVm2rFB4dUitIP7Ws-57" value="" style="endArrow=none;dashed=1;html=1;rounded=0;" edge="1" parent="1" target="pg0yVm2rFB4dUitIP7Ws-46">
          <mxGeometry width="50" height="50" relative="1" as="geometry">
            <mxPoint x="280" y="700" as="sourcePoint" />
            <mxPoint x="275" y="200" as="targetPoint" />
          </mxGeometry>
        </mxCell>
        <mxCell id="pg0yVm2rFB4dUitIP7Ws-46" value="" style="rounded=0;whiteSpace=wrap;html=1;" vertex="1" parent="1">
          <mxGeometry x="270" y="450" width="10" height="40" as="geometry" />
        </mxCell>
        <mxCell id="pg0yVm2rFB4dUitIP7Ws-58" value="" style="html=1;labelBackgroundColor=#ffffff;startArrow=none;startFill=0;startSize=6;endArrow=classic;endFill=1;endSize=6;jettySize=auto;orthogonalLoop=1;strokeWidth=1;dashed=1;fontSize=14;rounded=0;" edge="1" parent="1">
          <mxGeometry width="60" height="60" relative="1" as="geometry">
            <mxPoint x="280" y="490" as="sourcePoint" />
            <mxPoint x="60" y="490" as="targetPoint" />
          </mxGeometry>
        </mxCell>
        <mxCell id="pg0yVm2rFB4dUitIP7Ws-59" value="return card update board" style="edgeLabel;html=1;align=center;verticalAlign=middle;resizable=0;points=[];" vertex="1" connectable="0" parent="pg0yVm2rFB4dUitIP7Ws-58">
          <mxGeometry x="0.3058" relative="1" as="geometry">
            <mxPoint as="offset" />
          </mxGeometry>
        </mxCell>
        <mxCell id="pg0yVm2rFB4dUitIP7Ws-61" value="" style="endArrow=classic;html=1;rounded=0;" edge="1" parent="1">
          <mxGeometry width="50" height="50" relative="1" as="geometry">
            <mxPoint x="280" y="440" as="sourcePoint" />
            <mxPoint x="570" y="440" as="targetPoint" />
          </mxGeometry>
        </mxCell>
        <mxCell id="pg0yVm2rFB4dUitIP7Ws-65" value="draw replacement" style="edgeLabel;html=1;align=center;verticalAlign=middle;resizable=0;points=[];" vertex="1" connectable="0" parent="pg0yVm2rFB4dUitIP7Ws-61">
          <mxGeometry x="-0.021" y="-3" relative="1" as="geometry">
            <mxPoint as="offset" />
          </mxGeometry>
        </mxCell>
        <mxCell id="pg0yVm2rFB4dUitIP7Ws-62" value="" style="rounded=0;whiteSpace=wrap;html=1;" vertex="1" parent="1">
          <mxGeometry x="560" y="450" width="10" height="40" as="geometry" />
        </mxCell>
        <mxCell id="pg0yVm2rFB4dUitIP7Ws-63" value="" style="html=1;labelBackgroundColor=#ffffff;startArrow=none;startFill=0;startSize=6;endArrow=classic;endFill=1;endSize=6;jettySize=auto;orthogonalLoop=1;strokeWidth=1;dashed=1;fontSize=14;rounded=0;" edge="1" parent="1">
          <mxGeometry width="60" height="60" relative="1" as="geometry">
            <mxPoint x="570" y="500" as="sourcePoint" />
            <mxPoint x="270" y="500" as="targetPoint" />
          </mxGeometry>
        </mxCell>
        <mxCell id="pg0yVm2rFB4dUitIP7Ws-64" value="return replacement" style="edgeLabel;html=1;align=center;verticalAlign=middle;resizable=0;points=[];" vertex="1" connectable="0" parent="pg0yVm2rFB4dUitIP7Ws-63">
          <mxGeometry x="0.3058" relative="1" as="geometry">
            <mxPoint as="offset" />
          </mxGeometry>
        </mxCell>
        <mxCell id="pg0yVm2rFB4dUitIP7Ws-66" value="" style="endArrow=classic;html=1;rounded=0;" edge="1" parent="1">
          <mxGeometry width="50" height="50" relative="1" as="geometry">
            <mxPoint x="700" y="440" as="sourcePoint" />
            <mxPoint x="570" y="440" as="targetPoint" />
          </mxGeometry>
        </mxCell>
        <mxCell id="pg0yVm2rFB4dUitIP7Ws-67" value="get dream tile" style="edgeLabel;html=1;align=center;verticalAlign=middle;resizable=0;points=[];" vertex="1" connectable="0" parent="pg0yVm2rFB4dUitIP7Ws-66">
          <mxGeometry x="-0.021" y="-3" relative="1" as="geometry">
            <mxPoint as="offset" />
          </mxGeometry>
        </mxCell>
        <mxCell id="pg0yVm2rFB4dUitIP7Ws-68" value="" style="endArrow=classic;html=1;rounded=0;" edge="1" parent="1">
          <mxGeometry width="50" height="50" relative="1" as="geometry">
            <mxPoint x="60" y="560" as="sourcePoint" />
            <mxPoint x="1090" y="560" as="targetPoint" />
          </mxGeometry>
        </mxCell>
        <mxCell id="pg0yVm2rFB4dUitIP7Ws-71" value="" style="endArrow=none;dashed=1;html=1;rounded=0;" edge="1" parent="1" target="pg0yVm2rFB4dUitIP7Ws-70">
          <mxGeometry width="50" height="50" relative="1" as="geometry">
            <mxPoint x="1084.6" y="700" as="sourcePoint" />
            <mxPoint x="1084.6" y="80" as="targetPoint" />
          </mxGeometry>
        </mxCell>
        <mxCell id="pg0yVm2rFB4dUitIP7Ws-70" value="" style="rounded=0;whiteSpace=wrap;html=1;" vertex="1" parent="1">
          <mxGeometry x="1080" y="570" width="10" height="40" as="geometry" />
        </mxCell>
        <mxCell id="pg0yVm2rFB4dUitIP7Ws-76" value="" style="endArrow=none;dashed=1;html=1;rounded=0;" edge="1" parent="1" target="pg0yVm2rFB4dUitIP7Ws-75">
          <mxGeometry width="50" height="50" relative="1" as="geometry">
            <mxPoint x="954.6" y="690" as="sourcePoint" />
            <mxPoint x="954.6" y="70" as="targetPoint" />
          </mxGeometry>
        </mxCell>
        <mxCell id="pg0yVm2rFB4dUitIP7Ws-75" value="" style="rounded=0;whiteSpace=wrap;html=1;" vertex="1" parent="1">
          <mxGeometry x="950" y="570" width="10" height="40" as="geometry" />
        </mxCell>
        <mxCell id="pg0yVm2rFB4dUitIP7Ws-77" value="" style="endArrow=classic;html=1;rounded=0;exitX=0.5;exitY=0;exitDx=0;exitDy=0;" edge="1" parent="1" source="pg0yVm2rFB4dUitIP7Ws-70">
          <mxGeometry width="50" height="50" relative="1" as="geometry">
            <mxPoint x="1070" y="570" as="sourcePoint" />
            <mxPoint x="960" y="570" as="targetPoint" />
          </mxGeometry>
        </mxCell>
        <mxCell id="pg0yVm2rFB4dUitIP7Ws-89" value="user check location" style="edgeLabel;html=1;align=center;verticalAlign=middle;resizable=0;points=[];" vertex="1" connectable="0" parent="pg0yVm2rFB4dUitIP7Ws-77">
          <mxGeometry x="0.0567" relative="1" as="geometry">
            <mxPoint as="offset" />
          </mxGeometry>
        </mxCell>
        <mxCell id="pg0yVm2rFB4dUitIP7Ws-79" value="" style="endArrow=classic;html=1;rounded=0;" edge="1" parent="1">
          <mxGeometry width="50" height="50" relative="1" as="geometry">
            <mxPoint x="60" y="630" as="sourcePoint" />
            <mxPoint x="960" y="630" as="targetPoint" />
          </mxGeometry>
        </mxCell>
        <mxCell id="pg0yVm2rFB4dUitIP7Ws-88" value="set new start player" style="edgeLabel;html=1;align=center;verticalAlign=middle;resizable=0;points=[];" vertex="1" connectable="0" parent="pg0yVm2rFB4dUitIP7Ws-79">
          <mxGeometry x="-0.2785" y="-1" relative="1" as="geometry">
            <mxPoint as="offset" />
          </mxGeometry>
        </mxCell>
        <mxCell id="pg0yVm2rFB4dUitIP7Ws-80" value="" style="rounded=0;whiteSpace=wrap;html=1;" vertex="1" parent="1">
          <mxGeometry x="950" y="640" width="10" height="40" as="geometry" />
        </mxCell>
        <mxCell id="pg0yVm2rFB4dUitIP7Ws-81" value="" style="html=1;labelBackgroundColor=#ffffff;startArrow=none;startFill=0;startSize=6;endArrow=classic;endFill=1;endSize=6;jettySize=auto;orthogonalLoop=1;strokeWidth=1;dashed=1;fontSize=14;rounded=0;" edge="1" parent="1">
          <mxGeometry width="60" height="60" relative="1" as="geometry">
            <mxPoint x="960" y="690" as="sourcePoint" />
            <mxPoint x="60" y="690" as="targetPoint" />
          </mxGeometry>
        </mxCell>
        <mxCell id="pg0yVm2rFB4dUitIP7Ws-82" value="starting player" style="edgeLabel;html=1;align=center;verticalAlign=middle;resizable=0;points=[];" vertex="1" connectable="0" parent="pg0yVm2rFB4dUitIP7Ws-81">
          <mxGeometry x="0.3058" relative="1" as="geometry">
            <mxPoint as="offset" />
          </mxGeometry>
        </mxCell>
        <mxCell id="pg0yVm2rFB4dUitIP7Ws-84" value="" style="html=1;labelBackgroundColor=#ffffff;startArrow=none;startFill=0;startSize=6;endArrow=classic;endFill=1;endSize=6;jettySize=auto;orthogonalLoop=1;strokeWidth=1;dashed=1;fontSize=14;rounded=0;entryX=0;entryY=1;entryDx=0;entryDy=0;" edge="1" parent="1" target="pg0yVm2rFB4dUitIP7Ws-70">
          <mxGeometry width="60" height="60" relative="1" as="geometry">
            <mxPoint x="960" y="609.2" as="sourcePoint" />
            <mxPoint x="660" y="609.2" as="targetPoint" />
          </mxGeometry>
        </mxCell>
        <mxCell id="pg0yVm2rFB4dUitIP7Ws-85" value="get location" style="edgeLabel;html=1;align=center;verticalAlign=middle;resizable=0;points=[];" vertex="1" connectable="0" parent="pg0yVm2rFB4dUitIP7Ws-84">
          <mxGeometry x="0.3058" relative="1" as="geometry">
            <mxPoint as="offset" />
          </mxGeometry>
        </mxCell>
        <mxCell id="pg0yVm2rFB4dUitIP7Ws-90" value="Display" style="text;html=1;strokeColor=none;fillColor=none;align=center;verticalAlign=middle;whiteSpace=wrap;rounded=0;" vertex="1" parent="1">
          <mxGeometry x="440" y="240" width="60" height="30" as="geometry" />
        </mxCell>
        <mxCell id="pg0yVm2rFB4dUitIP7Ws-91" value="Interaction Diagram for 1 round of Rest Phase" style="text;html=1;strokeColor=none;fillColor=none;align=center;verticalAlign=middle;whiteSpace=wrap;rounded=0;" vertex="1" parent="1">
          <mxGeometry x="190" y="-10" width="910" height="30" as="geometry" />
        </mxCell>
        <mxCell id="pg0yVm2rFB4dUitIP7Ws-92" value="Running Phase" style="text;html=1;strokeColor=none;fillColor=none;align=center;verticalAlign=middle;whiteSpace=wrap;rounded=0;" vertex="1" parent="1">
          <mxGeometry x="25" y="10" width="60" height="30" as="geometry" />
        </mxCell>
      </root>
    </mxGraphModel>
  </diagram>
</mxfile>
